<svg width="22" height="22" viewBox="0 0 22 22" fill="none" xmlns="http://www.w3.org/2000/svg">
    <path
        d="M11 0.16671C9.57734 0.16671 8.16861 0.44692 6.85425 0.991346C5.53989 1.53577 4.34563 2.33375 3.33967 3.33972C1.30802 5.37136 0.166656 8.12686 0.166656 11C0.166656 13.8732 1.30802 16.6287 3.33967 18.6604C5.37131 20.692 8.12681 21.8334 11 21.8334C12.4226 21.8334 13.8314 21.5532 15.1457 21.0087C16.4601 20.4643 17.6543 19.6663 18.6603 18.6604C19.6663 17.6544 20.4643 16.4601 21.0087 15.1458C21.5531 13.8314 21.8333 12.4227 21.8333 11C21.8333 8.12686 20.692 5.37136 18.6603 3.33972C16.6287 1.30807 13.8732 0.16671 11 0.16671ZM11 16.4167L5.58332 11H8.83332V6.66671H13.1667V11H16.4167L11 16.4167Z"
        fill="#fff" />
</svg>