<svg width="13" height="20" viewBox="0 0 13 20" fill="none" xmlns="http://www.w3.org/2000/svg">
<path d="M6.5 1.90802C9.1 1.90802 11.1429 4.00685 11.1429 6.67808C11.1429 9.44471 8.45 13.547 6.5 16.1228C4.55 13.547 1.85714 9.44471 1.85714 6.67808C1.85714 4.00685 3.9 1.90802 6.5 1.90802ZM6.5 0C2.87857 0 0 2.95743 0 6.67808C0 11.6389 6.5 19.0802 6.5 19.0802C6.5 19.0802 13 11.6389 13 6.67808C13 2.95743 10.1214 0 6.5 0ZM5.85 11.4481L10.4 6.67808L9.1 5.34246L5.85 8.7769L4.36429 7.25048L3.06429 8.5861L5.85 11.4481Z" fill="white"/>
</svg>
