<svg width="68" height="90" viewBox="0 0 68 90" fill="none" xmlns="http://www.w3.org/2000/svg">
<path d="M34 9C43.35 9 51 16.65 51 26C51 34.925 42.075 49.375 34 59.575C25.925 48.95 17 34.925 17 26C17 16.65 24.65 9 34 9ZM34 0.5C19.975 0.5 8.5 11.975 8.5 26C8.5 45.125 34 72.75 34 72.75C34 72.75 59.5 44.7 59.5 26C59.5 11.975 48.025 0.5 34 0.5ZM34 17.5C29.325 17.5 25.5 21.325 25.5 26C25.5 30.675 29.325 34.5 34 34.5C38.675 34.5 42.5 30.675 42.5 26C42.5 21.325 38.675 17.5 34 17.5ZM68 72.75C68 82.1 52.7 89.75 34 89.75C15.3 89.75 0 82.1 0 72.75C0 67.225 5.1 62.55 13.175 59.15L15.725 62.975C11.475 65.1 8.5 67.65 8.5 70.625C8.5 76.575 19.975 81.25 34 81.25C48.025 81.25 59.5 76.575 59.5 70.625C59.5 67.65 56.525 65.1 51.85 62.975L54.4 59.15C62.9 62.55 68 67.225 68 72.75Z" fill="#14B41C"/>
</svg>
