<svg width="20" height="22" viewBox="0 0 20 22" fill="none" xmlns="http://www.w3.org/2000/svg">
<path d="M5.94059 17.1674C7.0297 17.1674 7.92079 18.0712 7.92079 19.1758C7.92079 20.2804 7.0297 21.1842 5.94059 21.1842C4.85148 21.1842 3.9604 20.2804 3.9604 19.1758C3.9604 18.0712 4.85148 17.1674 5.94059 17.1674ZM15.8416 17.1674C16.9307 17.1674 17.8218 18.0712 17.8218 19.1758C17.8218 20.2804 16.9307 21.1842 15.8416 21.1842C14.7525 21.1842 13.8614 20.2804 13.8614 19.1758C13.8614 18.0712 14.7525 17.1674 15.8416 17.1674ZM6.13861 13.9538C6.13861 14.0543 6.23762 14.1547 6.33663 14.1547H17.8218V16.1631H5.94059C4.85148 16.1631 3.9604 15.2593 3.9604 14.1547C3.9604 13.753 4.05941 13.4517 4.15842 13.1505L5.44554 10.7403L1.9802 3.10825H0V1.0998H3.26733L7.52475 10.1378H14.4554L18.3168 3.10825L20 4.11247L16.1386 11.142C15.8416 11.7446 15.1485 12.1462 14.4554 12.1462H7.0297L6.13861 13.753V13.9538ZM8.31683 0.0955811C9.10891 0.0955811 9.70297 0.698115 9.70297 1.50149C9.70297 2.30487 9.10891 2.9074 8.31683 2.9074C7.52475 2.9074 6.93069 2.30487 6.93069 1.50149C6.93069 0.698115 7.62376 0.0955811 8.31683 0.0955811ZM13.4653 8.12936C12.6733 8.12936 12.0792 7.52683 12.0792 6.72345C12.0792 5.92007 12.6733 5.31754 13.4653 5.31754C14.2574 5.31754 14.8515 5.92007 14.8515 6.72345C14.8515 7.52683 14.1584 8.12936 13.4653 8.12936ZM8.11881 8.12936L6.93069 6.92429L13.6634 0.0955811L14.8515 1.30065L8.11881 8.12936Z" fill="#14B41C"/>
</svg>
