<svg width="17" height="17" viewBox="0 0 17 17" fill="none" xmlns="http://www.w3.org/2000/svg">
<path d="M8.5 16.9985C7.38376 16.9985 6.27846 16.7907 5.24719 16.3869C4.21592 15.9832 3.27889 15.3914 2.48959 14.6454C0.895533 13.1388 0 11.0954 0 8.96469C0 6.834 0.895533 4.79057 2.48959 3.28395C4.08365 1.77732 6.24566 0.930908 8.5 0.930908C9.61624 0.930908 10.7215 1.13871 11.7528 1.54244C12.7841 1.94618 13.7211 2.53794 14.5104 3.28395C15.2997 4.02995 15.9258 4.91559 16.353 5.89029C16.7801 6.865 17 7.90968 17 8.96469C17 11.0954 16.1045 13.1388 14.5104 14.6454C12.9163 16.1521 10.7543 16.9985 8.5 16.9985ZM8.5 4.9478L4.25 8.96469H6.8V12.1782H10.2V8.96469H12.75L8.5 4.9478Z" fill="#14B41C"/>
</svg>
