<svg width="18" height="19" viewBox="0 0 18 19" fill="none" xmlns="http://www.w3.org/2000/svg">
<path d="M9.03618 0.168994C4.09749 0.168994 0.0723619 4.19089 0.0723619 9.12563C0.0723619 10.7073 0.488442 12.2437 1.26633 13.5994L0 18.2449L4.74874 16.9977C6.0603 17.7117 7.53467 18.0913 9.03618 18.0913C13.9749 18.0913 18 14.0694 18 9.13467C18 6.7396 17.0683 4.48915 15.3769 2.79904C14.5475 1.96222 13.5597 1.29871 12.4711 0.84717C11.3825 0.395629 10.2148 0.165092 9.03618 0.168994ZM9.04523 1.67834C11.0352 1.67834 12.8985 2.4556 14.3095 3.86553C15.0019 4.5574 15.5508 5.37895 15.9248 6.28311C16.2989 7.18728 16.4908 8.1563 16.4894 9.13467C16.4894 13.2379 13.1427 16.5729 9.03618 16.5729C7.69749 16.5729 6.38593 16.2204 5.24623 15.5336L4.97487 15.3799L2.15276 16.121L2.90352 13.3735L2.72261 13.0843C1.97597 11.8988 1.58081 10.5263 1.58291 9.12563C1.59196 5.02239 4.92965 1.67834 9.04523 1.67834ZM5.86131 4.98624C5.71658 4.98624 5.47236 5.04046 5.26432 5.26641C5.06533 5.49236 4.47739 6.04368 4.47739 7.13727C4.47739 8.23991 5.28241 9.29735 5.38191 9.451C5.50854 9.60464 6.97387 11.8641 9.22613 12.8222C9.7598 13.0662 10.1759 13.2018 10.5015 13.3012C11.0352 13.4729 11.5236 13.4458 11.9126 13.3916C12.3467 13.3283 13.2332 12.8493 13.4231 12.3251C13.6131 11.8009 13.6131 11.358 13.5588 11.2586C13.4955 11.1682 13.3508 11.114 13.1246 11.0146C12.8985 10.888 11.795 10.3458 11.596 10.2735C11.3879 10.2011 11.2613 10.165 11.0894 10.3819C10.9447 10.6079 10.5106 11.114 10.3839 11.2586C10.2482 11.4122 10.1216 11.4303 9.90452 11.3219C9.66935 11.2044 8.94573 10.9694 8.09548 10.2102C7.42613 9.61368 6.98291 8.8816 6.84724 8.65565C6.73869 8.43874 6.83819 8.30317 6.94673 8.20376C7.04623 8.10434 7.19095 7.94165 7.28141 7.80608C7.39899 7.67955 7.43518 7.58013 7.50754 7.43553C7.5799 7.28188 7.54372 7.15535 7.48945 7.04689C7.43517 6.94748 6.98291 5.82677 6.79296 5.38391C6.61206 4.95008 6.43116 5.00431 6.28643 4.99527C6.1598 4.99527 6.01507 4.98624 5.86131 4.98624Z" fill="white"/>
</svg>
