<svg width="40" height="43" viewBox="0 0 40 43" fill="none" xmlns="http://www.w3.org/2000/svg">
<path d="M11.6 0.0675659H28.4C34.8 0.0675659 40 5.52757 40 12.2476V29.8876C40 33.1179 38.7779 36.2159 36.6024 38.5001C34.427 40.7843 31.4765 42.0676 28.4 42.0676H11.6C5.2 42.0676 0 36.6076 0 29.8876V12.2476C0 9.01723 1.22214 5.9192 3.39756 3.63501C5.57298 1.35081 8.52349 0.0675659 11.6 0.0675659ZM11.2 4.26757C9.29044 4.26757 7.45909 5.06406 6.10883 6.48184C4.75857 7.89961 4 9.82253 4 11.8276V30.3076C4 34.4866 7.22 37.8676 11.2 37.8676H28.8C30.7096 37.8676 32.5409 37.0711 33.8912 35.6533C35.2414 34.2355 36 32.3126 36 30.3076V11.8276C36 7.64857 32.78 4.26757 28.8 4.26757H11.2ZM30.5 7.41757C31.163 7.41757 31.7989 7.69413 32.2678 8.18641C32.7366 8.67869 33 9.34637 33 10.0426C33 10.7388 32.7366 11.4064 32.2678 11.8987C31.7989 12.391 31.163 12.6676 30.5 12.6676C29.837 12.6676 29.2011 12.391 28.7322 11.8987C28.2634 11.4064 28 10.7388 28 10.0426C28 9.34637 28.2634 8.67869 28.7322 8.18641C29.2011 7.69413 29.837 7.41757 30.5 7.41757ZM20 10.5676C22.6522 10.5676 25.1957 11.6738 27.0711 13.6429C28.9464 15.6121 30 18.2828 30 21.0676C30 23.8523 28.9464 26.5231 27.0711 28.4922C25.1957 30.4613 22.6522 31.5676 20 31.5676C17.3478 31.5676 14.8043 30.4613 12.9289 28.4922C11.0536 26.5231 10 23.8523 10 21.0676C10 18.2828 11.0536 15.6121 12.9289 13.6429C14.8043 11.6738 17.3478 10.5676 20 10.5676ZM20 14.7676C18.4087 14.7676 16.8826 15.4313 15.7574 16.6128C14.6321 17.7943 14 19.3967 14 21.0676C14 22.7384 14.6321 24.3409 15.7574 25.5223C16.8826 26.7038 18.4087 27.3676 20 27.3676C21.5913 27.3676 23.1174 26.7038 24.2426 25.5223C25.3679 24.3409 26 22.7384 26 21.0676C26 19.3967 25.3679 17.7943 24.2426 16.6128C23.1174 15.4313 21.5913 14.7676 20 14.7676Z" fill="#14B41C"/>
</svg>
