<svg width="39" height="37" viewBox="0 0 39 37" fill="none" xmlns="http://www.w3.org/2000/svg">
<path d="M13 17.575C13.6097 17.575 14.2134 17.4554 14.7767 17.2229C15.34 16.9905 15.8519 16.6498 16.283 16.2204C16.7141 15.7909 17.0561 15.281 17.2894 14.7199C17.5228 14.1588 17.6429 13.5574 17.6429 12.95C17.6429 12.3426 17.5228 11.7412 17.2894 11.1801C17.0561 10.619 16.7141 10.1091 16.283 9.67963C15.8519 9.25016 15.34 8.90948 14.7767 8.67706C14.2134 8.44463 13.6097 8.325 13 8.325C11.7686 8.325 10.5877 8.81228 9.717 9.67963C8.8463 10.547 8.35714 11.7234 8.35714 12.95C8.35714 13.5574 8.47723 14.1588 8.71056 14.7199C8.94388 15.281 9.28587 15.7909 9.717 16.2204C10.5877 17.0877 11.7686 17.575 13 17.575ZM13 0C20.1686 0 26 5.7905 26 12.95C26 22.6625 13 37 13 37C13 37 0 22.6625 0 12.95C0 9.51545 1.36964 6.22156 3.80761 3.79297C6.24558 1.36437 9.55219 0 13 0ZM24.1429 27.75H29.7143V22.2H33.4286V27.75H39V31.45H33.4286V37H29.7143V31.45H24.1429V27.75Z" fill="#152FA3"/>
</svg>
