<svg width="34" height="31" viewBox="0 0 34 31" fill="none" xmlns="http://www.w3.org/2000/svg">
    <path
        d="M17 22.7216C15.6474 22.7216 14.3502 22.1912 13.3938 21.2471C12.4373 20.3029 11.9 19.0224 11.9 17.6871C11.9 15.8076 12.937 14.163 14.45 13.3071L30.957 3.87587L21.556 19.9527C20.706 21.5973 18.989 22.7216 17 22.7216ZM17 0.905518C20.077 0.905518 22.95 1.7446 25.449 3.12069L21.879 5.15127C20.4 4.5807 18.7 4.26184 17 4.26184C13.3931 4.26184 9.93385 5.67629 7.38336 8.19403C4.83286 10.7118 3.40001 14.1265 3.40001 17.6871C3.40001 21.3959 4.91301 24.7522 7.37801 27.1688H7.39501C8.05801 27.8233 8.05801 28.8805 7.39501 29.535C6.73201 30.1895 5.64401 30.1895 4.98101 29.5518C3.40004 27.9955 2.14614 26.1461 1.29135 24.11C0.436552 22.0739 -0.00229739 19.8912 9.04427e-06 17.6871C9.04427e-06 13.2364 1.79107 8.96791 4.97919 5.82074C8.16731 2.67358 12.4913 0.905518 17 0.905518ZM34 17.6871C34 22.3189 32.096 26.5143 29.019 29.5518C28.356 30.1895 27.285 30.1895 26.622 29.535C26.4644 29.3797 26.3394 29.1953 26.2541 28.9923C26.1688 28.7893 26.1248 28.5717 26.1248 28.3519C26.1248 28.1321 26.1688 27.9145 26.2541 27.7114C26.3394 27.5084 26.4644 27.324 26.622 27.1688C27.8863 25.9258 28.8887 24.448 29.5715 22.8207C30.2543 21.1933 30.6038 19.4486 30.6 17.6871C30.6 16.009 30.277 14.3308 29.682 12.8205L31.739 9.29633C33.15 11.8136 34 14.6329 34 17.6871Z"
        fill="" />
</svg>